<?xml version="1.0" standalone="no"?>
<!DOCTYPE svg PUBLIC "-//W3C//DTD SVG 20010904//EN" "http://www.w3.org/TR/2001/REC-SVG-20010904/DTD/svg10.dtd">
<svg version="1.0" xmlns="http://www.w3.org/2000/svg"
  width="128.000000pt" height="128.000000pt" viewBox="0 0 128.000000 128.000000"
  preserveAspectRatio="xMidYMid meet">

  <g transform="translate(0.000000,128.000000) scale(0.100000,-0.100000)"
    fill="rgb(255,255,255,0.7)" stroke="none">
    <path d="M543 756 c-86 -28 -168 -99 -202 -177 l-18 -39 -74 61 c-41 34 -91
78 -112 98 -31 29 -41 34 -55 25 -14 -10 -17 -27 -16 -105 1 -108 29 -204 83
-283 l31 -47 -60 -26 c-41 -17 -60 -31 -60 -43 0 -38 152 -123 259 -145 80
-17 534 -19 626 -4 64 11 201 72 249 112 39 32 30 52 -39 82 l-55 25 32 46
c52 77 80 175 82 283 1 78 -2 95 -16 105 -15 9 -25 3 -60 -30 -24 -23 -74 -66
-112 -97 l-69 -56 -24 49 c-29 59 -99 125 -161 153 -59 25 -171 32 -229 13z
m167 -56 c65 -18 127 -66 159 -122 17 -29 31 -60 31 -68 0 -17 -235 -174 -260
-174 -25 0 -260 157 -260 174 0 8 14 39 30 67 59 103 187 155 300 123z m-359
-252 c118 -86 242 -163 386 -240 l98 -52 -45 -14 c-25 -7 -79 -16 -120 -19
-245 -17 -477 156 -535 398 -27 115 -24 118 49 56 35 -29 110 -88 167 -129z
m794 77 c-28 -122 -106 -240 -201 -306 l-45 -30 -87 46 c-48 26 -91 51 -95 55
-5 4 49 46 120 93 70 47 171 121 223 164 107 89 111 88 85 -22z m-825 -366
l45 -31 -40 7 c-49 8 -165 60 -165 74 0 5 12 14 28 19 22 8 32 5 57 -15 17
-13 50 -38 75 -54z m800 49 c0 -13 -117 -65 -165 -73 l-40 -7 35 23 c19 12 52
37 73 55 34 29 42 31 68 22 16 -5 29 -14 29 -20z" />
  </g>
</svg>